<svg width="249" height="32" viewBox="0 0 249 32" fill="none" xmlns="http://www.w3.org/2000/svg">
<path fill-rule="evenodd" clip-rule="evenodd" d="M34.9932 14.0076C34.9932 17.599 33.5069 20.847 31.1047 23.1949C28.7018 25.5417 25.3779 26.9939 21.7027 26.9945V27H21.7021V26.9945C18.0263 26.9939 14.7018 25.5417 12.3002 23.1943C9.8973 20.847 8.41167 17.599 8.41105 14.0082C8.41105 13.0973 9.16039 12.3575 10.0932 12.3575C11.0254 12.3575 11.7815 13.0961 11.7815 14.007V14.0082C11.7815 16.6796 12.8878 19.1035 14.6875 20.8622C16.4865 22.6196 18.9672 23.7078 21.7021 23.7078V23.7011H21.7027V23.7078C24.4371 23.7078 26.9177 22.6196 28.7167 20.8622C30.5164 19.1035 31.6295 16.6796 31.6295 14.0076H31.6233V14.007C31.6233 13.0961 32.3789 12.3575 33.3116 12.3575C34.2438 12.3575 35 13.0961 35 14.007V14.0076H34.9932ZM27.4966 19.6691C26.0172 21.114 23.9694 22.0079 21.7027 22.0079V22.014H21.7021V22.0079C19.4348 22.0079 17.387 21.114 15.9082 19.6691C14.4294 18.2235 13.514 16.2221 13.514 14.0082H13.5072V14.007H13.514C13.514 11.7919 14.4294 9.79049 15.9082 8.34554C17.387 6.90059 19.4348 6.00668 21.7009 6.00668V6H21.7021H21.7027V6.00668C23.9688 6.00668 26.0178 6.90059 27.4966 8.34614C28.9754 9.79109 29.8902 11.7919 29.8902 14.0064H29.897V14.007V14.0076H29.8902C29.8902 16.2221 28.9754 18.2235 27.4966 19.6691ZM26.5265 14.0064C26.5265 12.7113 25.9849 11.534 25.1093 10.6783C24.2331 9.82265 23.0285 9.29286 21.7027 9.29286V9.29953H21.7021H21.7009V9.29286C20.3757 9.29286 19.1711 9.82265 18.2955 10.6783C17.4193 11.534 16.8777 12.7113 16.8777 14.007H16.8839V14.0082H16.8777C16.8777 15.3033 17.4193 16.4806 18.2955 17.3363C19.1711 18.1919 20.3757 18.7217 21.7021 18.7217V18.7151H21.7027V18.7217C23.0285 18.7217 24.2331 18.1919 25.1087 17.3363C25.9849 16.4806 26.5265 15.3033 26.5265 14.0076H26.5203V14.007V14.0064H26.5265ZM10.0957 11.6129C8.93839 11.6129 8 10.6953 8 9.56473C8 8.43414 8.93839 7.51717 10.0957 7.51717C11.253 7.51717 12.192 8.43414 12.192 9.56473C12.192 10.6953 11.253 11.6129 10.0957 11.6129Z" fill="#EC0344"/>
<path d="M51.552 9.216C50.832 9.216 50.24 9.008 49.776 8.592C49.328 8.16 49.104 7.632 49.104 7.008C49.104 6.368 49.328 5.84 49.776 5.424C50.24 4.992 50.832 4.776 51.552 4.776C52.256 4.776 52.832 4.992 53.28 5.424C53.744 5.84 53.976 6.368 53.976 7.008C53.976 7.632 53.744 8.16 53.28 8.592C52.832 9.008 52.256 9.216 51.552 9.216ZM53.592 10.608V24H49.488V10.608H53.592ZM62.6621 24.192C61.3501 24.192 60.1661 23.912 59.1101 23.352C58.0701 22.792 57.2461 21.992 56.6381 20.952C56.0461 19.912 55.7501 18.696 55.7501 17.304C55.7501 15.928 56.0541 14.72 56.6621 13.68C57.2701 12.624 58.1021 11.816 59.1581 11.256C60.2141 10.696 61.3981 10.416 62.7101 10.416C64.0221 10.416 65.2061 10.696 66.2621 11.256C67.3181 11.816 68.1501 12.624 68.7581 13.68C69.3661 14.72 69.6701 15.928 69.6701 17.304C69.6701 18.68 69.3581 19.896 68.7341 20.952C68.1261 21.992 67.2861 22.792 66.2141 23.352C65.1581 23.912 63.9741 24.192 62.6621 24.192ZM62.6621 20.64C63.4461 20.64 64.1101 20.352 64.6541 19.776C65.2141 19.2 65.4941 18.376 65.4941 17.304C65.4941 16.232 65.2221 15.408 64.6781 14.832C64.1501 14.256 63.4941 13.968 62.7101 13.968C61.9101 13.968 61.2461 14.256 60.7181 14.832C60.1901 15.392 59.9261 16.216 59.9261 17.304C59.9261 18.376 60.1821 19.2 60.6941 19.776C61.2221 20.352 61.8781 20.64 62.6621 20.64ZM71.0314 17.28C71.0314 15.904 71.2874 14.696 71.7994 13.656C72.3274 12.616 73.0394 11.816 73.9354 11.256C74.8314 10.696 75.8314 10.416 76.9354 10.416C77.8794 10.416 78.7034 10.608 79.4074 10.992C80.1274 11.376 80.6794 11.88 81.0634 12.504V10.608H85.1674V24H81.0634V22.104C80.6634 22.728 80.1034 23.232 79.3834 23.616C78.6794 24 77.8554 24.192 76.9114 24.192C75.8234 24.192 74.8314 23.912 73.9354 23.352C73.0394 22.776 72.3274 21.968 71.7994 20.928C71.2874 19.872 71.0314 18.656 71.0314 17.28ZM81.0634 17.304C81.0634 16.28 80.7754 15.472 80.1994 14.88C79.6394 14.288 78.9514 13.992 78.1354 13.992C77.3194 13.992 76.6234 14.288 76.0474 14.88C75.4874 15.456 75.2074 16.256 75.2074 17.28C75.2074 18.304 75.4874 19.12 76.0474 19.728C76.6234 20.32 77.3194 20.616 78.1354 20.616C78.9514 20.616 79.6394 20.32 80.1994 19.728C80.7754 19.136 81.0634 18.328 81.0634 17.304ZM93.5844 24.192C92.4164 24.192 91.3764 23.992 90.4644 23.592C89.5524 23.192 88.8324 22.648 88.3044 21.96C87.7764 21.256 87.4804 20.472 87.4164 19.608H91.4724C91.5204 20.072 91.7364 20.448 92.1204 20.736C92.5044 21.024 92.9764 21.168 93.5364 21.168C94.0484 21.168 94.4404 21.072 94.7124 20.88C95.0004 20.672 95.1444 20.408 95.1444 20.088C95.1444 19.704 94.9444 19.424 94.5444 19.248C94.1444 19.056 93.4964 18.848 92.6004 18.624C91.6404 18.4 90.8404 18.168 90.2004 17.928C89.5604 17.672 89.0084 17.28 88.5444 16.752C88.0804 16.208 87.8484 15.48 87.8484 14.568C87.8484 13.8 88.0564 13.104 88.4724 12.48C88.9044 11.84 89.5284 11.336 90.3444 10.968C91.1764 10.6 92.1604 10.416 93.2964 10.416C94.9764 10.416 96.2964 10.832 97.2564 11.664C98.2324 12.496 98.7924 13.6 98.9364 14.976H95.1444C95.0804 14.512 94.8724 14.144 94.5204 13.872C94.1844 13.6 93.7364 13.464 93.1764 13.464C92.6964 13.464 92.3284 13.56 92.0724 13.752C91.8164 13.928 91.6884 14.176 91.6884 14.496C91.6884 14.88 91.8884 15.168 92.2884 15.36C92.7044 15.552 93.3444 15.744 94.2084 15.936C95.2004 16.192 96.0084 16.448 96.6324 16.704C97.2564 16.944 97.8004 17.344 98.2644 17.904C98.7444 18.448 98.9924 19.184 99.0084 20.112C99.0084 20.896 98.7844 21.6 98.3364 22.224C97.9044 22.832 97.2724 23.312 96.4404 23.664C95.6244 24.016 94.6724 24.192 93.5844 24.192ZM115.199 10.608L106.799 30.36H102.383L105.455 23.544L100.007 10.608H104.591L107.687 18.984L110.759 10.608H115.199ZM122.131 24.192C120.963 24.192 119.923 23.992 119.011 23.592C118.099 23.192 117.379 22.648 116.851 21.96C116.323 21.256 116.027 20.472 115.963 19.608H120.019C120.067 20.072 120.283 20.448 120.667 20.736C121.051 21.024 121.523 21.168 122.083 21.168C122.595 21.168 122.987 21.072 123.259 20.88C123.547 20.672 123.691 20.408 123.691 20.088C123.691 19.704 123.491 19.424 123.091 19.248C122.691 19.056 122.043 18.848 121.147 18.624C120.187 18.4 119.387 18.168 118.747 17.928C118.107 17.672 117.555 17.28 117.091 16.752C116.627 16.208 116.395 15.48 116.395 14.568C116.395 13.8 116.603 13.104 117.019 12.48C117.451 11.84 118.075 11.336 118.891 10.968C119.723 10.6 120.707 10.416 121.843 10.416C123.523 10.416 124.843 10.832 125.803 11.664C126.779 12.496 127.339 13.6 127.483 14.976H123.691C123.627 14.512 123.419 14.144 123.067 13.872C122.731 13.6 122.283 13.464 121.723 13.464C121.243 13.464 120.875 13.56 120.619 13.752C120.363 13.928 120.235 14.176 120.235 14.496C120.235 14.88 120.435 15.168 120.835 15.36C121.251 15.552 121.891 15.744 122.755 15.936C123.747 16.192 124.555 16.448 125.179 16.704C125.803 16.944 126.347 17.344 126.811 17.904C127.291 18.448 127.539 19.184 127.555 20.112C127.555 20.896 127.331 21.6 126.883 22.224C126.451 22.832 125.819 23.312 124.987 23.664C124.171 24.016 123.219 24.192 122.131 24.192ZM139.256 12.504C139.656 11.88 140.208 11.376 140.912 10.992C141.616 10.608 142.44 10.416 143.384 10.416C144.488 10.416 145.488 10.696 146.384 11.256C147.28 11.816 147.984 12.616 148.496 13.656C149.024 14.696 149.288 15.904 149.288 17.28C149.288 18.656 149.024 19.872 148.496 20.928C147.984 21.968 147.28 22.776 146.384 23.352C145.488 23.912 144.488 24.192 143.384 24.192C142.456 24.192 141.632 24 140.912 23.616C140.208 23.232 139.656 22.736 139.256 22.128V30.384H135.152V10.608H139.256V12.504ZM145.112 17.28C145.112 16.256 144.824 15.456 144.248 14.88C143.688 14.288 142.992 13.992 142.16 13.992C141.344 13.992 140.648 14.288 140.072 14.88C139.512 15.472 139.232 16.28 139.232 17.304C139.232 18.328 139.512 19.136 140.072 19.728C140.648 20.32 141.344 20.616 142.16 20.616C142.976 20.616 143.672 20.32 144.248 19.728C144.824 19.12 145.112 18.304 145.112 17.28ZM157.537 24.192C156.225 24.192 155.041 23.912 153.985 23.352C152.945 22.792 152.121 21.992 151.513 20.952C150.921 19.912 150.625 18.696 150.625 17.304C150.625 15.928 150.929 14.72 151.537 13.68C152.145 12.624 152.977 11.816 154.033 11.256C155.089 10.696 156.273 10.416 157.585 10.416C158.897 10.416 160.081 10.696 161.137 11.256C162.193 11.816 163.025 12.624 163.633 13.68C164.241 14.72 164.545 15.928 164.545 17.304C164.545 18.68 164.233 19.896 163.609 20.952C163.001 21.992 162.161 22.792 161.089 23.352C160.033 23.912 158.849 24.192 157.537 24.192ZM157.537 20.64C158.321 20.64 158.985 20.352 159.529 19.776C160.089 19.2 160.369 18.376 160.369 17.304C160.369 16.232 160.097 15.408 159.553 14.832C159.025 14.256 158.369 13.968 157.585 13.968C156.785 13.968 156.121 14.256 155.593 14.832C155.065 15.392 154.801 16.216 154.801 17.304C154.801 18.376 155.057 19.2 155.569 19.776C156.097 20.352 156.753 20.64 157.537 20.64ZM174.906 24L170.826 18.384V24H166.722V6.24H170.826V16.056L174.882 10.608H179.946L174.378 17.328L179.994 24H174.906ZM194.182 17.088C194.182 17.472 194.158 17.872 194.11 18.288H184.822C184.886 19.12 185.15 19.76 185.614 20.208C186.094 20.64 186.678 20.856 187.366 20.856C188.39 20.856 189.102 20.424 189.502 19.56H193.87C193.646 20.44 193.238 21.232 192.646 21.936C192.07 22.64 191.342 23.192 190.462 23.592C189.582 23.992 188.598 24.192 187.51 24.192C186.198 24.192 185.03 23.912 184.006 23.352C182.982 22.792 182.182 21.992 181.606 20.952C181.03 19.912 180.742 18.696 180.742 17.304C180.742 15.912 181.022 14.696 181.582 13.656C182.158 12.616 182.958 11.816 183.982 11.256C185.006 10.696 186.182 10.416 187.51 10.416C188.806 10.416 189.958 10.688 190.966 11.232C191.974 11.776 192.758 12.552 193.318 13.56C193.894 14.568 194.182 15.744 194.182 17.088ZM189.982 16.008C189.982 15.304 189.742 14.744 189.262 14.328C188.782 13.912 188.182 13.704 187.462 13.704C186.774 13.704 186.19 13.904 185.71 14.304C185.246 14.704 184.958 15.272 184.846 16.008H189.982ZM190.27 7.176L184.486 9.6V6.768L190.27 3.984V7.176ZM195.531 17.28C195.531 15.904 195.787 14.696 196.299 13.656C196.827 12.616 197.539 11.816 198.435 11.256C199.331 10.696 200.331 10.416 201.435 10.416C202.315 10.416 203.115 10.6 203.835 10.968C204.571 11.336 205.147 11.832 205.563 12.456V6.24H209.667V24H205.563V22.08C205.179 22.72 204.627 23.232 203.907 23.616C203.203 24 202.379 24.192 201.435 24.192C200.331 24.192 199.331 23.912 198.435 23.352C197.539 22.776 196.827 21.968 196.299 20.928C195.787 19.872 195.531 18.656 195.531 17.28ZM205.563 17.304C205.563 16.28 205.275 15.472 204.699 14.88C204.139 14.288 203.451 13.992 202.635 13.992C201.819 13.992 201.123 14.288 200.547 14.88C199.987 15.456 199.707 16.256 199.707 17.28C199.707 18.304 199.987 19.12 200.547 19.728C201.123 20.32 201.819 20.616 202.635 20.616C203.451 20.616 204.139 20.32 204.699 19.728C205.275 19.136 205.563 18.328 205.563 17.304ZM225.26 17.088C225.26 17.472 225.236 17.872 225.188 18.288H215.9C215.964 19.12 216.228 19.76 216.692 20.208C217.172 20.64 217.756 20.856 218.444 20.856C219.468 20.856 220.18 20.424 220.58 19.56H224.948C224.724 20.44 224.316 21.232 223.724 21.936C223.148 22.64 222.42 23.192 221.54 23.592C220.66 23.992 219.676 24.192 218.588 24.192C217.276 24.192 216.108 23.912 215.084 23.352C214.06 22.792 213.26 21.992 212.684 20.952C212.108 19.912 211.82 18.696 211.82 17.304C211.82 15.912 212.1 14.696 212.66 13.656C213.236 12.616 214.036 11.816 215.06 11.256C216.084 10.696 217.26 10.416 218.588 10.416C219.884 10.416 221.036 10.688 222.044 11.232C223.052 11.776 223.836 12.552 224.396 13.56C224.972 14.568 225.26 15.744 225.26 17.088ZM221.06 16.008C221.06 15.304 220.82 14.744 220.34 14.328C219.86 13.912 219.26 13.704 218.54 13.704C217.852 13.704 217.268 13.904 216.788 14.304C216.324 14.704 216.036 15.272 215.924 16.008H221.06ZM235.346 24L232.778 20.28L230.618 24H226.178L230.594 17.16L226.058 10.608H230.666L233.234 14.304L235.394 10.608H239.834L235.346 17.352L239.954 24H235.346Z" fill="#EC0344"/>
</svg>
